<?xml version="1.0" encoding="utf-8"?>
<!-- Generator: Adobe Illustrator 21.0.2, SVG Export Plug-In . SVG Version: 6.00 Build 0)  -->
<svg version="1.1" xmlns="http://www.w3.org/2000/svg" xmlns:xlink="http://www.w3.org/1999/xlink" x="0px" y="0px" width="1400px"
	 height="980px" viewBox="0 0 1400 980" enable-background="new 0 0 1400 980" xml:space="preserve">
<g id="background">
	<rect id="color" fill="#FFFFFF" width="1400" height="980"/>
</g>
<g id="baby_faces">
	<g id="shocked">
		<path fill="#FDDAB4" d="M1286.3,745.4c0,68.3-59.2,123.6-132.3,123.6c-73.1,0-132.3-55.3-132.3-123.6
			c0-68.3,59.2-123.6,132.3-123.6C1227,621.8,1286.3,677.1,1286.3,745.4z"/>
		<g>
			<path fill="#FFCDA6" d="M1060.7,786c0,11.4,9.2,20.5,20.5,20.5c11.3,0,20.5-9.2,20.5-20.5c0-11.4-9.2-20.5-20.5-20.5
				C1069.9,765.4,1060.7,774.6,1060.7,786z"/>
		</g>
		<g>
			<path fill="#FFCDA6" d="M1206.1,786c0,11.4,9.2,20.5,20.5,20.5c11.3,0,20.5-9.2,20.5-20.5c0-11.4-9.2-20.6-20.5-20.6
				C1215.3,765.4,1206.1,774.6,1206.1,786z"/>
		</g>
		<g>
			<g>
				<path fill="#FDDAB4" d="M1312.8,754.9c0,16-12.3,29-27.4,29c-15.1,0-27.4-13-27.4-29c0-16,12.3-29,27.4-29
					C1300.6,725.9,1312.8,738.9,1312.8,754.9z"/>
				<path fill="#FFC597" d="M1282.3,741.5c8.9-7,18.2,4.4,16.7,13.2c-5.9,1.7-11.4,4.5-14.6,10.1
					C1284.4,758.6,1284,747.5,1282.3,741.5z"/>
			</g>
			<g>
				<path fill="#FDDAB4" d="M995.1,754.9c0,16,12.3,29,27.4,29c15.1,0,27.4-13,27.4-29c0-16-12.3-29-27.4-29
					C1007.4,725.9,995.1,738.9,995.1,754.9z"/>
				<path fill="#FFC597" d="M1025.7,741.5c-8.9-7-18.2,4.4-16.7,13.2c5.9,1.7,11.4,4.5,14.6,10.1
					C1023.5,758.6,1023.9,747.5,1025.7,741.5z"/>
			</g>
		</g>
		<g>
			<path fill="#BA8556" d="M1181.1,627.3c-34.1-12.5-76.2-3.9-87.5,32.4c-6.1,21.5,30,37.5,35.6,9.9c4.6,22.3,46.7,19,42-2.3
				c6.7,15.1,28.2,22.3,39.8,7.6C1225.5,656.8,1196.9,633.1,1181.1,627.3z"/>
			<path fill="#CA905D" d="M1107.1,644.8c-5.9,4.7-8.6,18.5-3.6,24.5c4.9,6,16.1,3.4,19.6-3c1.4,12.1-10.5,17.3-20.2,11.1
				c-11.6-7.5-6.7-22.3,1.9-30.3"/>
			<path fill="#CA905D" d="M1133.2,670.3c4.9,17.4,38.3,12.4,36.4-6.2c-6.6,12.1-25.3,11.5-35.9,6.8"/>
			<path fill="#CA905D" d="M1176.8,669.2c9.7,4.7,20.2,7.5,28.3-2.3c5.4-6.6,3.1-16.2-4.3-19.8c11.2,1.9,14.2,21,6.2,27.8
				c-3.9,3.3-11.7,6-16.8,4.7c-3.9-0.9-12.2-5.6-12.8-9.9"/>
			<path fill="#BA8556" d="M1159.9,559.2c-0.6,19.3-7.7,39.9-14,56.6c2-6.2,2.8-12.4,2-19.2c-1.1-9.6-5.3-22.3-7.5-29.8
				c-10.2,6-19.7,12.9-28.5,21.1c14.7,4.8,25.4,12.4,32.8,27.8l1.4,0.9c7.3-6.4,16.1-11.7,23.6-18.6c10.3-9.6,17.7-20.4,26.3-32.4
				C1185.3,564.6,1170.5,563.4,1159.9,559.2z"/>
			<g>
				<path fill="#FBD0C4" d="M1158.5,614.6c0,8.3-6.8,15.1-15.1,15.1c-8.3,0-15.1-6.8-15.1-15.1c0-8.3,6.7-15.1,15.1-15.1
					C1151.7,599.6,1158.5,606.3,1158.5,614.6z"/>
				<path fill="#FBB4A1" d="M1132.1,613.8c1.2,4.1,4.3,8.2,8.9,8.8c3.6,0.4,6.5-0.5,9.6-2.1c-0.6,2-1.3,3.9-3.1,5.2
					c-1.8,1.2-4.1,1.7-6.2,1.6c-4.6-0.2-9.6-4.8-10.2-9.4c-0.1-1,0-3.1,0.8-3.8"/>
				<path fill="#FFFFFF" d="M1140.3,601.8c-1.5,0.4-2.8,1.2-4,2.1c-1.2,0.9-2.9,2.3-3,4c0,0.7,0.4,1.3,1.1,1.6
					c1.5,0.6,3.2-1.7,4-2.6c1-1.1,2.3-1.7,3.5-2.6c0.5-0.3,1.8-1.2,1.6-2C1143.2,601.4,1141,601.7,1140.3,601.8z"/>
			</g>
			<g>
				<path fill="#FBD0C4" d="M1183.7,614.6c0,8.3-6.7,15.1-15.1,15.1c-8.3,0-15.1-6.8-15.1-15.1c0-8.3,6.8-15.1,15.1-15.1
					C1177,599.6,1183.7,606.3,1183.7,614.6z"/>
				<path fill="#FBB4A1" d="M1157.3,613.8c1.2,4.1,4.3,8.2,8.9,8.8c3.6,0.4,6.5-0.5,9.6-2.1c-0.6,2-1.3,3.9-3.1,5.2
					c-1.8,1.2-4.1,1.7-6.2,1.6c-4.6-0.2-9.6-4.8-10.2-9.4c-0.1-1,0-3.1,0.8-3.8"/>
				<path fill="#FFFFFF" d="M1165.5,601.8c-1.5,0.4-2.8,1.2-4,2.1c-1.2,0.9-2.9,2.3-3,4c0,0.7,0.4,1.3,1.1,1.6
					c1.5,0.6,3.2-1.7,4-2.6c1-1.1,2.3-1.7,3.5-2.6c0.5-0.3,1.8-1.2,1.6-2C1168.5,601.4,1166.2,601.7,1165.5,601.8z"/>
			</g>
		</g>
		<circle fill="#966B46" cx="1103.1" cy="735.3" r="12.7"/>
		<circle fill="#966B46" cx="1204.9" cy="735.3" r="12.7"/>
		<ellipse fill="#E06861" cx="1154" cy="790.5" rx="26.7" ry="30.5"/>
	</g>
	<g id="teasing">
		<path fill="#FDDAB4" d="M832.3,745.4c0,68.3-59.2,123.6-132.3,123.6c-73.1,0-132.3-55.3-132.3-123.6
			c0-68.3,59.2-123.6,132.3-123.6C773.1,621.8,832.3,677.1,832.3,745.4z"/>
		<g>
			<path fill="#FFCDA6" d="M606.8,786c0,11.4,9.2,20.5,20.5,20.5c11.3,0,20.5-9.2,20.5-20.5c0-11.4-9.2-20.5-20.5-20.5
				C615.9,765.4,606.8,774.6,606.8,786z"/>
		</g>
		<g>
			<path fill="#FFCDA6" d="M752.2,786c0,11.4,9.2,20.5,20.5,20.5c11.3,0,20.5-9.2,20.5-20.5c0-11.4-9.2-20.6-20.5-20.6
				C761.3,765.4,752.2,774.6,752.2,786z"/>
		</g>
		<g>
			<path fill="#E06861" d="M700,813.4c-22.2,0-40.4-17.2-42-39h84C740.4,796.2,722.2,813.4,700,813.4z"/>
		</g>
		<g>
			<g>
				<path fill="#FDDAB4" d="M858.9,754.9c0,16-12.3,29-27.4,29c-15.1,0-27.4-13-27.4-29c0-16,12.3-29,27.4-29
					C846.6,725.9,858.9,738.9,858.9,754.9z"/>
				<path fill="#FFC597" d="M828.3,741.5c8.9-7,18.2,4.4,16.7,13.2c-5.9,1.7-11.4,4.5-14.6,10.1C830.4,758.6,830,747.5,828.3,741.5z
					"/>
			</g>
			<g>
				<path fill="#FDDAB4" d="M541.1,754.9c0,16,12.3,29,27.4,29c15.1,0,27.4-13,27.4-29c0-16-12.3-29-27.4-29
					C553.4,725.9,541.1,738.9,541.1,754.9z"/>
				<path fill="#FFC597" d="M571.7,741.5c-8.9-7-18.2,4.4-16.7,13.2c5.9,1.7,11.4,4.5,14.6,10.1C569.6,758.6,570,747.5,571.7,741.5z
					"/>
			</g>
		</g>
		<g>
			<path fill="#BA8556" d="M727.1,627.3c-34.1-12.5-76.2-3.9-87.5,32.4c-6.1,21.5,30,37.5,35.6,9.9c4.6,22.3,46.7,19,42-2.3
				c6.7,15.1,28.2,22.3,39.8,7.6C771.5,656.8,742.9,633.1,727.1,627.3z"/>
			<path fill="#CA905D" d="M653.2,644.8c-5.9,4.7-8.6,18.5-3.6,24.5c4.9,6,16.1,3.4,19.6-3c1.4,12.1-10.5,17.3-20.2,11.1
				c-11.6-7.5-6.7-22.3,1.9-30.3"/>
			<path fill="#CA905D" d="M679.3,670.3c4.9,17.4,38.3,12.4,36.4-6.2c-6.6,12.1-25.3,11.5-35.9,6.8"/>
			<path fill="#CA905D" d="M722.8,669.2c9.7,4.7,20.2,7.5,28.3-2.3c5.4-6.6,3.1-16.2-4.3-19.8c11.2,1.9,14.2,21,6.2,27.8
				c-3.9,3.3-11.7,6-16.8,4.7c-3.9-0.9-12.2-5.6-12.8-9.9"/>
			<path fill="#BA8556" d="M706,559.2c-0.6,19.3-7.7,39.9-14,56.6c2-6.2,2.8-12.4,2-19.2c-1.1-9.6-5.3-22.3-7.5-29.8
				c-10.2,6-19.7,12.9-28.5,21.1c14.7,4.8,25.4,12.4,32.8,27.8l1.4,0.9c7.3-6.4,16.1-11.7,23.6-18.6c10.3-9.6,17.7-20.4,26.3-32.4
				C731.4,564.6,716.6,563.4,706,559.2z"/>
			<g>
				<path fill="#FBD0C4" d="M704.5,614.6c0,8.3-6.8,15.1-15.1,15.1c-8.3,0-15.1-6.8-15.1-15.1c0-8.3,6.7-15.1,15.1-15.1
					C697.8,599.6,704.5,606.3,704.5,614.6z"/>
				<path fill="#FBB4A1" d="M678.1,613.8c1.2,4.1,4.3,8.2,8.9,8.8c3.6,0.4,6.5-0.5,9.6-2.1c-0.6,2-1.3,3.9-3.1,5.2
					c-1.8,1.2-4.1,1.7-6.2,1.6c-4.6-0.2-9.6-4.8-10.2-9.4c-0.1-1,0-3.1,0.8-3.8"/>
				<path fill="#FFFFFF" d="M686.3,601.8c-1.5,0.4-2.8,1.2-4,2.1c-1.2,0.9-2.9,2.3-3,4c0,0.7,0.4,1.3,1.1,1.6c1.5,0.6,3.2-1.7,4-2.6
					c1-1.1,2.3-1.7,3.5-2.6c0.5-0.3,1.8-1.2,1.6-2C689.3,601.4,687,601.7,686.3,601.8z"/>
			</g>
			<g>
				<path fill="#FBD0C4" d="M729.7,614.6c0,8.3-6.7,15.1-15.1,15.1c-8.3,0-15.1-6.8-15.1-15.1c0-8.3,6.8-15.1,15.1-15.1
					C723,599.6,729.7,606.3,729.7,614.6z"/>
				<path fill="#FBB4A1" d="M703.4,613.8c1.2,4.1,4.3,8.2,8.9,8.8c3.6,0.4,6.5-0.5,9.6-2.1c-0.6,2-1.3,3.9-3.1,5.2
					c-1.8,1.2-4.1,1.7-6.2,1.6c-4.6-0.2-9.6-4.8-10.2-9.4c-0.1-1,0-3.1,0.8-3.8"/>
				<path fill="#FFFFFF" d="M711.5,601.8c-1.5,0.4-2.8,1.2-4,2.1c-1.2,0.9-2.9,2.3-3,4c0,0.7,0.4,1.3,1.1,1.6c1.5,0.6,3.2-1.7,4-2.6
					c1-1.1,2.3-1.7,3.5-2.6c0.5-0.3,1.8-1.2,1.6-2C714.5,601.4,712.2,601.7,711.5,601.8z"/>
			</g>
		</g>
		<g>
			<g>
				<path fill="#F7736B" d="M680.9,801.4v21.9c0,7.2,8.2,13.2,18.3,13.2h1.6c10.1,0,18.3-5.9,18.3-13.2v-21.9H680.9z"/>
			</g>
		</g>
		<g>
			<circle fill="#966B46" cx="649.1" cy="735.3" r="12.7"/>
			<circle fill="#966B46" cx="750.9" cy="735.3" r="12.7"/>
		</g>
	</g>
	<g id="sad">
		<path fill="#FDDAB4" d="M378.3,745.4c0,68.3-59.2,123.6-132.3,123.6c-73.1,0-132.3-55.3-132.3-123.6
			c0-68.3,59.2-123.6,132.3-123.6C319.1,621.8,378.3,677.1,378.3,745.4z"/>
		<g>
			<path fill="#FFCDA6" d="M152.8,786c0,11.4,9.2,20.5,20.5,20.5c11.3,0,20.5-9.2,20.5-20.5c0-11.4-9.2-20.5-20.5-20.5
				C162,765.4,152.8,774.6,152.8,786z"/>
		</g>
		<g>
			<path fill="#FFCDA6" d="M298.2,786c0,11.4,9.2,20.5,20.5,20.5c11.3,0,20.5-9.2,20.5-20.5c0-11.4-9.2-20.6-20.5-20.6
				C307.4,765.4,298.2,774.6,298.2,786z"/>
		</g>
		<g>
			<g>
				<path fill="#FDDAB4" d="M404.9,754.9c0,16-12.3,29-27.4,29c-15.1,0-27.4-13-27.4-29c0-16,12.3-29,27.4-29
					C392.6,725.9,404.9,738.9,404.9,754.9z"/>
				<path fill="#FFC597" d="M374.3,741.5c8.9-7,18.2,4.4,16.7,13.2c-5.9,1.7-11.4,4.5-14.6,10.1
					C376.5,758.6,376.1,747.5,374.3,741.5z"/>
			</g>
			<g>
				<path fill="#FDDAB4" d="M87.2,754.9c0,16,12.3,29,27.4,29c15.1,0,27.4-13,27.4-29c0-16-12.3-29-27.4-29
					C99.4,725.9,87.2,738.9,87.2,754.9z"/>
				<path fill="#FFC597" d="M117.7,741.5c-8.9-7-18.2,4.4-16.7,13.2c5.9,1.7,11.4,4.5,14.6,10.1C115.6,758.6,116,747.5,117.7,741.5z
					"/>
			</g>
		</g>
		<g>
			<path fill="#BA8556" d="M273.2,627.3c-34.1-12.5-76.2-3.9-87.5,32.4c-6.1,21.5,30,37.5,35.6,9.9c4.6,22.3,46.7,19,42-2.3
				c6.7,15.1,28.2,22.3,39.8,7.6C317.6,656.8,288.9,633.1,273.2,627.3z"/>
			<path fill="#CA905D" d="M199.2,644.8c-5.9,4.7-8.6,18.5-3.6,24.5c4.9,6,16.1,3.4,19.6-3c1.4,12.1-10.5,17.3-20.2,11.1
				c-11.6-7.5-6.7-22.3,1.9-30.3"/>
			<path fill="#CA905D" d="M225.3,670.3c4.9,17.4,38.3,12.4,36.4-6.2c-6.6,12.1-25.3,11.5-35.9,6.8"/>
			<path fill="#CA905D" d="M268.8,669.2c9.7,4.7,20.2,7.5,28.3-2.3c5.4-6.6,3.1-16.2-4.3-19.8c11.2,1.9,14.2,21,6.2,27.8
				c-3.9,3.3-11.7,6-16.8,4.7c-3.9-0.9-12.2-5.6-12.8-9.9"/>
			<path fill="#BA8556" d="M252,559.2c-0.6,19.3-7.7,39.9-14,56.6c2-6.2,2.8-12.4,2-19.2c-1.1-9.6-5.3-22.3-7.5-29.8
				c-10.2,6-19.7,12.9-28.5,21.1c14.7,4.8,25.4,12.4,32.8,27.8l1.4,0.9c7.3-6.4,16.1-11.7,23.6-18.6c10.3-9.6,17.7-20.4,26.3-32.4
				C277.4,564.6,262.6,563.4,252,559.2z"/>
			<g>
				<path fill="#FBD0C4" d="M250.5,614.6c0,8.3-6.8,15.1-15.1,15.1c-8.3,0-15.1-6.8-15.1-15.1c0-8.3,6.7-15.1,15.1-15.1
					C243.8,599.6,250.5,606.3,250.5,614.6z"/>
				<path fill="#FBB4A1" d="M224.1,613.8c1.2,4.1,4.3,8.2,8.9,8.8c3.6,0.4,6.5-0.5,9.6-2.1c-0.6,2-1.3,3.9-3.1,5.2
					c-1.8,1.2-4.1,1.7-6.2,1.6c-4.6-0.2-9.6-4.8-10.2-9.4c-0.1-1,0-3.1,0.8-3.8"/>
				<path fill="#FFFFFF" d="M232.3,601.8c-1.5,0.4-2.8,1.2-4,2.1c-1.2,0.9-2.9,2.3-3,4c0,0.7,0.4,1.3,1.1,1.6c1.5,0.6,3.2-1.7,4-2.6
					c1-1.1,2.3-1.7,3.5-2.6c0.5-0.3,1.8-1.2,1.6-2C235.3,601.4,233,601.7,232.3,601.8z"/>
			</g>
			<g>
				<path fill="#FBD0C4" d="M275.8,614.6c0,8.3-6.7,15.1-15.1,15.1c-8.3,0-15.1-6.8-15.1-15.1c0-8.3,6.8-15.1,15.1-15.1
					C269,599.6,275.8,606.3,275.8,614.6z"/>
				<path fill="#FBB4A1" d="M249.4,613.8c1.2,4.1,4.3,8.2,8.9,8.8c3.6,0.4,6.5-0.5,9.6-2.1c-0.6,2-1.3,3.9-3.1,5.2
					c-1.8,1.2-4.1,1.7-6.2,1.6c-4.6-0.2-9.6-4.8-10.2-9.4c-0.1-1,0-3.1,0.8-3.8"/>
				<path fill="#FFFFFF" d="M257.6,601.8c-1.5,0.4-2.8,1.2-4,2.1c-1.2,0.9-2.9,2.3-3,4c0,0.7,0.4,1.3,1.1,1.6c1.5,0.6,3.2-1.7,4-2.6
					c1-1.1,2.3-1.7,3.5-2.6c0.5-0.3,1.8-1.2,1.6-2C260.5,601.4,258.2,601.7,257.6,601.8z"/>
			</g>
		</g>
		<g>
			<path fill="#E06861" d="M276.6,804.3c-1.2,0-2.3-0.5-3.1-1.6c-6.5-8.9-16.5-14-27.4-14s-21,5.1-27.4,14c-1.2,1.7-3.6,2.1-5.3,0.8
				c-1.7-1.2-2.1-3.6-0.8-5.3c7.9-10.9,20.2-17.1,33.6-17.1s25.7,6.2,33.6,17.1c1.2,1.7,0.9,4.1-0.8,5.3
				C278.1,804.1,277.3,804.3,276.6,804.3z"/>
		</g>
		<g>
			<circle fill="#966B46" cx="195.1" cy="735.3" r="12.7"/>
			<circle fill="#966B46" cx="296.9" cy="735.3" r="12.7"/>
		</g>
	</g>
	<g id="dummy_suck">
		<path fill="#FDDAB4" d="M1286.3,297.2c0,68.3-59.2,123.6-132.3,123.6c-73.1,0-132.3-55.3-132.3-123.6
			c0-68.3,59.2-123.6,132.3-123.6C1227,173.6,1286.3,228.9,1286.3,297.2z"/>
		<g>
			<path fill="#FFCDA6" d="M1060.7,337.7c0,11.4,9.2,20.5,20.5,20.5c11.3,0,20.5-9.2,20.5-20.5c0-11.4-9.2-20.5-20.5-20.5
				C1069.9,317.2,1060.7,326.4,1060.7,337.7z"/>
		</g>
		<g>
			<path fill="#FFCDA6" d="M1206.1,337.7c0,11.4,9.2,20.5,20.5,20.5c11.3,0,20.5-9.2,20.5-20.5c0-11.4-9.2-20.6-20.5-20.6
				C1215.3,317.2,1206.1,326.4,1206.1,337.7z"/>
		</g>
		<g>
			<g>
				<path fill="#FDDAB4" d="M1312.8,306.7c0,16-12.3,29-27.4,29c-15.1,0-27.4-13-27.4-29c0-16,12.3-29,27.4-29
					C1300.6,277.7,1312.8,290.7,1312.8,306.7z"/>
				<path fill="#FFC597" d="M1282.3,293.3c8.9-7,18.2,4.4,16.7,13.2c-5.9,1.7-11.4,4.5-14.6,10.1
					C1284.4,310.4,1284,299.3,1282.3,293.3z"/>
			</g>
			<g>
				<path fill="#FDDAB4" d="M995.1,306.7c0,16,12.3,29,27.4,29c15.1,0,27.4-13,27.4-29c0-16-12.3-29-27.4-29
					C1007.4,277.7,995.1,290.7,995.1,306.7z"/>
				<path fill="#FFC597" d="M1025.7,293.3c-8.9-7-18.2,4.4-16.7,13.2c5.9,1.7,11.4,4.5,14.6,10.1
					C1023.5,310.4,1023.9,299.3,1025.7,293.3z"/>
			</g>
		</g>
		<g>
			<path fill="#BA8556" d="M1181.1,179.1c-34.1-12.5-76.2-3.9-87.5,32.4c-6.1,21.5,30,37.5,35.6,9.9c4.6,22.3,46.7,19,42-2.3
				c6.7,15.1,28.2,22.3,39.8,7.6C1225.5,208.6,1196.9,184.9,1181.1,179.1z"/>
			<path fill="#CA905D" d="M1107.1,196.6c-5.9,4.7-8.6,18.5-3.6,24.5c4.9,6,16.1,3.4,19.6-3c1.4,12.1-10.5,17.3-20.2,11.1
				c-11.6-7.5-6.7-22.3,1.9-30.3"/>
			<path fill="#CA905D" d="M1133.2,222.1c4.9,17.4,38.3,12.4,36.4-6.2c-6.6,12.1-25.3,11.5-35.9,6.8"/>
			<path fill="#CA905D" d="M1176.8,221c9.7,4.7,20.2,7.5,28.3-2.3c5.4-6.6,3.1-16.2-4.3-19.8c11.2,1.9,14.2,21,6.2,27.8
				c-3.9,3.3-11.7,6-16.8,4.7c-3.9-0.9-12.2-5.6-12.8-9.9"/>
			<path fill="#BA8556" d="M1159.9,111c-0.6,19.3-7.7,39.9-14,56.6c2-6.2,2.8-12.4,2-19.2c-1.1-9.6-5.3-22.3-7.5-29.8
				c-10.2,6-19.7,12.9-28.5,21.1c14.7,4.8,25.4,12.4,32.8,27.8l1.4,0.9c7.3-6.4,16.1-11.7,23.6-18.6c10.3-9.6,17.7-20.4,26.3-32.4
				C1185.3,116.4,1170.5,115.2,1159.9,111z"/>
			<g>
				<path fill="#FBD0C4" d="M1158.5,166.4c0,8.3-6.8,15.1-15.1,15.1c-8.3,0-15.1-6.8-15.1-15.1c0-8.3,6.7-15.1,15.1-15.1
					C1151.7,151.4,1158.5,158.1,1158.5,166.4z"/>
				<path fill="#FBB4A1" d="M1132.1,165.6c1.2,4.1,4.3,8.2,8.9,8.8c3.6,0.4,6.5-0.5,9.6-2.1c-0.6,2-1.3,3.9-3.1,5.2
					c-1.8,1.2-4.1,1.7-6.2,1.6c-4.6-0.2-9.6-4.8-10.2-9.4c-0.1-1,0-3.1,0.8-3.8"/>
				<path fill="#FFFFFF" d="M1140.3,153.6c-1.5,0.4-2.8,1.2-4,2.1c-1.2,0.9-2.9,2.3-3,4c0,0.7,0.4,1.3,1.1,1.6
					c1.5,0.6,3.2-1.7,4-2.6c1-1.1,2.3-1.7,3.5-2.6c0.5-0.3,1.8-1.2,1.6-2C1143.2,153.2,1141,153.4,1140.3,153.6z"/>
			</g>
			<g>
				<path fill="#FBD0C4" d="M1183.7,166.4c0,8.3-6.7,15.1-15.1,15.1c-8.3,0-15.1-6.8-15.1-15.1c0-8.3,6.8-15.1,15.1-15.1
					C1177,151.4,1183.7,158.1,1183.7,166.4z"/>
				<path fill="#FBB4A1" d="M1157.3,165.6c1.2,4.1,4.3,8.2,8.9,8.8c3.6,0.4,6.5-0.5,9.6-2.1c-0.6,2-1.3,3.9-3.1,5.2
					c-1.8,1.2-4.1,1.7-6.2,1.6c-4.6-0.2-9.6-4.8-10.2-9.4c-0.1-1,0-3.1,0.8-3.8"/>
				<path fill="#FFFFFF" d="M1165.5,153.6c-1.5,0.4-2.8,1.2-4,2.1c-1.2,0.9-2.9,2.3-3,4c0,0.7,0.4,1.3,1.1,1.6
					c1.5,0.6,3.2-1.7,4-2.6c1-1.1,2.3-1.7,3.5-2.6c0.5-0.3,1.8-1.2,1.6-2C1168.5,153.2,1166.2,153.4,1165.5,153.6z"/>
			</g>
		</g>
		<g>
			<path fill="#966B46" d="M1114.5,287.5c-1,0-2-0.4-2.7-1.1c-9-9-23.7-9-32.8,0c-1.5,1.5-3.9,1.5-5.4,0c-1.5-1.5-1.5-3.9,0-5.4
				c12-12,31.6-12,43.6,0c1.5,1.5,1.5,3.9,0,5.4C1116.5,287.2,1115.5,287.5,1114.5,287.5z"/>
		</g>
		<g>
			<path fill="#966B46" d="M1231.6,287.5c-1,0-2-0.4-2.7-1.1c-9-9-23.7-9-32.8,0c-1.5,1.5-3.9,1.5-5.4,0c-1.5-1.5-1.5-3.9,0-5.4
				c12-12,31.6-12,43.6,0c1.5,1.5,1.5,3.9,0,5.4C1233.6,287.2,1232.6,287.5,1231.6,287.5z"/>
		</g>
		<g>
			<path fill="#FFFFFF" d="M1192.2,337c0,20.6-17.1,37.3-38.2,37.3c-21.1,0-38.2-16.7-38.2-37.3c0-20.6,17.1-37.2,38.2-37.2
				C1175.1,299.8,1192.2,316.4,1192.2,337z"/>
			<path fill="#FAC8C4" d="M1179.5,337c0,13.7-11.4,24.9-25.5,24.9c-14.1,0-25.5-11.1-25.5-24.9c0-13.7,11.4-24.8,25.5-24.8
				C1168,312.2,1179.5,323.3,1179.5,337z"/>
			<path fill="#F2766B" d="M1159.5,351.7c0-0.1,0-0.3,0-0.5v-12.5c0-2.5-2.6-4.5-5.9-4.5c-3.2,0-5.8,2-5.8,4.5v12.5
				c0,0.2,0,0.4,0,0.6c-10.1,2.6-17.6,11.6-17.6,22.3c0,12.7,10.6,23.1,23.7,23.1c13.1,0,23.7-10.3,23.7-23.1
				C1177.7,363.3,1169.9,354.1,1159.5,351.7z M1154,389.7c-8.8,0-15.9-6.9-15.9-15.5c0-8.6,7.1-15.6,15.9-15.6
				c8.8,0,15.9,7,15.9,15.6C1169.9,382.7,1162.8,389.7,1154,389.7z"/>
		</g>
	</g>
	<g id="crying">
		<path fill="#FDDAB4" d="M832.3,297.2c0,68.3-59.2,123.6-132.3,123.6c-73.1,0-132.3-55.3-132.3-123.6
			c0-68.3,59.2-123.6,132.3-123.6C773.1,173.6,832.3,228.9,832.3,297.2z"/>
		<g>
			<path fill="#FFCDA6" d="M606.8,337.7c0,11.4,9.2,20.5,20.5,20.5c11.3,0,20.5-9.2,20.5-20.5c0-11.4-9.2-20.5-20.5-20.5
				C615.9,317.2,606.8,326.4,606.8,337.7z"/>
		</g>
		<g>
			<path fill="#FFCDA6" d="M752.2,337.7c0,11.4,9.2,20.5,20.5,20.5c11.3,0,20.5-9.2,20.5-20.5c0-11.4-9.2-20.6-20.5-20.6
				C761.3,317.2,752.2,326.4,752.2,337.7z"/>
		</g>
		<g>
			<g>
				<path fill="#FDDAB4" d="M858.9,306.7c0,16-12.3,29-27.4,29c-15.1,0-27.4-13-27.4-29c0-16,12.3-29,27.4-29
					C846.6,277.7,858.9,290.7,858.9,306.7z"/>
				<path fill="#FFC597" d="M828.3,293.3c8.9-7,18.2,4.4,16.7,13.2c-5.9,1.7-11.4,4.5-14.6,10.1C830.4,310.4,830,299.3,828.3,293.3z
					"/>
			</g>
			<g>
				<path fill="#FDDAB4" d="M541.1,306.7c0,16,12.3,29,27.4,29c15.1,0,27.4-13,27.4-29c0-16-12.3-29-27.4-29
					C553.4,277.7,541.1,290.7,541.1,306.7z"/>
				<path fill="#FFC597" d="M571.7,293.3c-8.9-7-18.2,4.4-16.7,13.2c5.9,1.7,11.4,4.5,14.6,10.1C569.6,310.4,570,299.3,571.7,293.3z
					"/>
			</g>
		</g>
		<g>
			<path fill="#BA8556" d="M727.1,179.1c-34.1-12.5-76.2-3.9-87.5,32.4c-6.1,21.5,30,37.5,35.6,9.9c4.6,22.3,46.7,19,42-2.3
				c6.7,15.1,28.2,22.3,39.8,7.6C771.5,208.6,742.9,184.9,727.1,179.1z"/>
			<path fill="#CA905D" d="M653.2,196.6c-5.9,4.7-8.6,18.5-3.6,24.5c4.9,6,16.1,3.4,19.6-3c1.4,12.1-10.5,17.3-20.2,11.1
				c-11.6-7.5-6.7-22.3,1.9-30.3"/>
			<path fill="#CA905D" d="M679.3,222.1c4.9,17.4,38.3,12.4,36.4-6.2c-6.6,12.1-25.3,11.5-35.9,6.8"/>
			<path fill="#CA905D" d="M722.8,221c9.7,4.7,20.2,7.5,28.3-2.3c5.4-6.6,3.1-16.2-4.3-19.8c11.2,1.9,14.2,21,6.2,27.8
				c-3.9,3.3-11.7,6-16.8,4.7c-3.9-0.9-12.2-5.6-12.8-9.9"/>
			<path fill="#BA8556" d="M706,111c-0.6,19.3-7.7,39.9-14,56.6c2-6.2,2.8-12.4,2-19.2c-1.1-9.6-5.3-22.3-7.5-29.8
				c-10.2,6-19.7,12.9-28.5,21.1c14.7,4.8,25.4,12.4,32.8,27.8l1.4,0.9c7.3-6.4,16.1-11.7,23.6-18.6c10.3-9.6,17.7-20.4,26.3-32.4
				C731.4,116.4,716.6,115.2,706,111z"/>
			<g>
				<path fill="#FBD0C4" d="M704.5,166.4c0,8.3-6.8,15.1-15.1,15.1c-8.3,0-15.1-6.8-15.1-15.1c0-8.3,6.7-15.1,15.1-15.1
					C697.8,151.4,704.5,158.1,704.5,166.4z"/>
				<path fill="#FBB4A1" d="M678.1,165.6c1.2,4.1,4.3,8.2,8.9,8.8c3.6,0.4,6.5-0.5,9.6-2.1c-0.6,2-1.3,3.9-3.1,5.2
					c-1.8,1.2-4.1,1.7-6.2,1.6c-4.6-0.2-9.6-4.8-10.2-9.4c-0.1-1,0-3.1,0.8-3.8"/>
				<path fill="#FFFFFF" d="M686.3,153.6c-1.5,0.4-2.8,1.2-4,2.1c-1.2,0.9-2.9,2.3-3,4c0,0.7,0.4,1.3,1.1,1.6c1.5,0.6,3.2-1.7,4-2.6
					c1-1.1,2.3-1.7,3.5-2.6c0.5-0.3,1.8-1.2,1.6-2C689.3,153.2,687,153.4,686.3,153.6z"/>
			</g>
			<g>
				<path fill="#FBD0C4" d="M729.7,166.4c0,8.3-6.7,15.1-15.1,15.1c-8.3,0-15.1-6.8-15.1-15.1c0-8.3,6.8-15.1,15.1-15.1
					C723,151.4,729.7,158.1,729.7,166.4z"/>
				<path fill="#FBB4A1" d="M703.4,165.6c1.2,4.1,4.3,8.2,8.9,8.8c3.6,0.4,6.5-0.5,9.6-2.1c-0.6,2-1.3,3.9-3.1,5.2
					c-1.8,1.2-4.1,1.7-6.2,1.6c-4.6-0.2-9.6-4.8-10.2-9.4c-0.1-1,0-3.1,0.8-3.8"/>
				<path fill="#FFFFFF" d="M711.5,153.6c-1.5,0.4-2.8,1.2-4,2.1c-1.2,0.9-2.9,2.3-3,4c0,0.7,0.4,1.3,1.1,1.6c1.5,0.6,3.2-1.7,4-2.6
					c1-1.1,2.3-1.7,3.5-2.6c0.5-0.3,1.8-1.2,1.6-2C714.5,153.2,712.2,153.4,711.5,153.6z"/>
			</g>
		</g>
		<g>
			<path fill="#966B46" d="M660.5,292.6c-1,0-2-0.4-2.7-1.1c-4.4-4.4-10.2-6.8-16.4-6.8s-12,2.4-16.4,6.8c-1.5,1.5-3.9,1.5-5.4,0
				c-1.5-1.5-1.5-3.9,0-5.4c5.8-5.8,13.6-9,21.8-9s16,3.2,21.8,9c1.5,1.5,1.5,3.9,0,5.4C662.5,292.2,661.5,292.6,660.5,292.6z"/>
		</g>
		<g>
			<path fill="#966B46" d="M777.6,292.6c-1,0-2-0.4-2.7-1.1c-4.4-4.4-10.2-6.8-16.4-6.8s-12,2.4-16.4,6.8c-1.5,1.5-3.9,1.5-5.4,0
				c-1.5-1.5-1.5-3.9,0-5.4c5.8-5.8,13.6-9,21.8-9s16,3.2,21.8,9c1.5,1.5,1.5,3.9,0,5.4C779.6,292.2,778.6,292.6,777.6,292.6z"/>
		</g>
		<ellipse fill="#D4625C" cx="700" cy="341" rx="31.8" ry="28"/>
		<path fill="#F7736B" d="M712.7,356.2c0,6.2-25.5,6.2-25.5,0c0-6.2,5.7-11.2,12.7-11.2S712.7,350,712.7,356.2z"/>
		<g>
			<path fill="#8BD1EB" d="M615.8,292.6c-11.3,0.1-26.9,23.4-10.5,25.8C617.2,320.1,606.2,298.8,615.8,292.6z"/>
			<path fill="#FFFFFF" d="M603.2,307.3c-4,2.2-2.9,10.3,2.4,9c-2.1-1.9-3.3-6.1-2.5-8.7c-0.3,0.5-0.7,0.5-1.1,0.7"/>
		</g>
		<g>
			<path fill="#8BD1EB" d="M782.4,293.1c11.3-0.9,29.1,20.7,12.9,24.7C783.7,320.6,792.6,298.3,782.4,293.1z"/>
			<path fill="#FFFFFF" d="M796.3,306.5c4.2,1.8,3.9,10-1.6,9.2c1.9-2.1,2.7-6.4,1.6-8.8c0.4,0.4,0.8,0.4,1.2,0.6"/>
		</g>
	</g>
	<g id="smiling">
		<path fill="#FDDAB4" d="M378.3,297.2c0,68.3-59.2,123.6-132.3,123.6c-73.1,0-132.3-55.3-132.3-123.6
			c0-68.3,59.2-123.6,132.3-123.6C319.1,173.6,378.3,228.9,378.3,297.2z"/>
		<g>
			<path fill="#FFCDA6" d="M152.8,337.7c0,11.4,9.2,20.5,20.5,20.5c11.3,0,20.5-9.2,20.5-20.5c0-11.4-9.2-20.5-20.5-20.5
				C162,317.2,152.8,326.4,152.8,337.7z"/>
		</g>
		<g>
			<path fill="#FFCDA6" d="M298.2,337.7c0,11.4,9.2,20.5,20.5,20.5c11.3,0,20.5-9.2,20.5-20.5c0-11.4-9.2-20.6-20.5-20.6
				C307.4,317.2,298.2,326.4,298.2,337.7z"/>
		</g>
		<g>
			<path fill="#E06861" d="M246,365.2c-22.2,0-40.4-17.2-42-39h84C286.4,348,268.2,365.1,246,365.2z"/>
		</g>
		<g>
			<g>
				<path fill="#FDDAB4" d="M404.9,306.7c0,16-12.3,29-27.4,29c-15.1,0-27.4-13-27.4-29c0-16,12.3-29,27.4-29
					C392.6,277.7,404.9,290.7,404.9,306.7z"/>
				<path fill="#FFC597" d="M374.3,293.3c8.9-7,18.2,4.4,16.7,13.2c-5.9,1.7-11.4,4.5-14.6,10.1
					C376.5,310.4,376.1,299.3,374.3,293.3z"/>
			</g>
			<g>
				<path fill="#FDDAB4" d="M87.2,306.7c0,16,12.3,29,27.4,29c15.1,0,27.4-13,27.4-29c0-16-12.3-29-27.4-29
					C99.4,277.7,87.2,290.7,87.2,306.7z"/>
				<path fill="#FFC597" d="M117.7,293.3c-8.9-7-18.2,4.4-16.7,13.2c5.9,1.7,11.4,4.5,14.6,10.1C115.6,310.4,116,299.3,117.7,293.3z
					"/>
			</g>
		</g>
		<g>
			<path fill="#BA8556" d="M273.2,179.1c-34.1-12.5-76.2-3.9-87.5,32.4c-6.1,21.5,30,37.5,35.6,9.9c4.6,22.3,46.7,19,42-2.3
				c6.7,15.1,28.2,22.3,39.8,7.6C317.6,208.6,288.9,184.9,273.2,179.1z"/>
			<path fill="#CA905D" d="M199.2,196.6c-5.9,4.7-8.6,18.5-3.6,24.5c4.9,6,16.1,3.4,19.6-3c1.4,12.1-10.5,17.3-20.2,11.1
				c-11.6-7.5-6.7-22.3,1.9-30.3"/>
			<path fill="#CA905D" d="M225.3,222.1c4.9,17.4,38.3,12.4,36.4-6.2c-6.6,12.1-25.3,11.5-35.9,6.8"/>
			<path fill="#CA905D" d="M268.8,221c9.7,4.7,20.2,7.5,28.3-2.3c5.4-6.6,3.1-16.2-4.3-19.8c11.2,1.9,14.2,21,6.2,27.8
				c-3.9,3.3-11.7,6-16.8,4.7c-3.9-0.9-12.2-5.6-12.8-9.9"/>
			<path fill="#BA8556" d="M252,111c-0.6,19.3-7.7,39.9-14,56.6c2-6.2,2.8-12.4,2-19.2c-1.1-9.6-5.3-22.3-7.5-29.8
				c-10.2,6-19.7,12.9-28.5,21.1c14.7,4.8,25.4,12.4,32.8,27.8l1.4,0.9c7.3-6.4,16.1-11.7,23.6-18.6c10.3-9.6,17.7-20.4,26.3-32.4
				C277.4,116.4,262.6,115.2,252,111z"/>
			<g>
				<path fill="#FBD0C4" d="M250.5,166.4c0,8.3-6.8,15.1-15.1,15.1c-8.3,0-15.1-6.8-15.1-15.1c0-8.3,6.7-15.1,15.1-15.1
					C243.8,151.4,250.5,158.1,250.5,166.4z"/>
				<path fill="#FBB4A1" d="M224.1,165.6c1.2,4.1,4.3,8.2,8.9,8.8c3.6,0.4,6.5-0.5,9.6-2.1c-0.6,2-1.3,3.9-3.1,5.2
					c-1.8,1.2-4.1,1.7-6.2,1.6c-4.6-0.2-9.6-4.8-10.2-9.4c-0.1-1,0-3.1,0.8-3.8"/>
				<path fill="#FFFFFF" d="M232.3,153.6c-1.5,0.4-2.8,1.2-4,2.1c-1.2,0.9-2.9,2.3-3,4c0,0.7,0.4,1.3,1.1,1.6c1.5,0.6,3.2-1.7,4-2.6
					c1-1.1,2.3-1.7,3.5-2.6c0.5-0.3,1.8-1.2,1.6-2C235.3,153.2,233,153.4,232.3,153.6z"/>
			</g>
			<g>
				<path fill="#FBD0C4" d="M275.8,166.4c0,8.3-6.7,15.1-15.1,15.1c-8.3,0-15.1-6.8-15.1-15.1c0-8.3,6.8-15.1,15.1-15.1
					C269,151.4,275.8,158.1,275.8,166.4z"/>
				<path fill="#FBB4A1" d="M249.4,165.6c1.2,4.1,4.3,8.2,8.9,8.8c3.6,0.4,6.5-0.5,9.6-2.1c-0.6,2-1.3,3.9-3.1,5.2
					c-1.8,1.2-4.1,1.7-6.2,1.6c-4.6-0.2-9.6-4.8-10.2-9.4c-0.1-1,0-3.1,0.8-3.8"/>
				<path fill="#FFFFFF" d="M257.6,153.6c-1.5,0.4-2.8,1.2-4,2.1c-1.2,0.9-2.9,2.3-3,4c0,0.7,0.4,1.3,1.1,1.6c1.5,0.6,3.2-1.7,4-2.6
					c1-1.1,2.3-1.7,3.5-2.6c0.5-0.3,1.8-1.2,1.6-2C260.5,153.2,258.2,153.4,257.6,153.6z"/>
			</g>
		</g>
		<g>
			<path fill="#966B46" d="M206.6,282.4c-1,0-2-0.4-2.7-1.1c-9-9-23.7-9-32.8,0c-1.5,1.5-3.9,1.5-5.4,0c-1.5-1.5-1.5-3.9,0-5.4
				c12-12,31.6-12,43.6,0c1.5,1.5,1.5,3.9,0,5.4C208.5,282.1,207.5,282.4,206.6,282.4z"/>
		</g>
		<g>
			<path fill="#966B46" d="M323.6,282.4c-1,0-2-0.4-2.7-1.1c-9-9-23.7-9-32.8,0c-1.5,1.5-3.9,1.5-5.4,0s-1.5-3.9,0-5.4
				c12-12,31.6-12,43.6,0c1.5,1.5,1.5,3.9,0,5.4C325.6,282.1,324.6,282.4,323.6,282.4z"/>
		</g>
	</g>
</g>
</svg>
