<?xml version="1.0" encoding="UTF-8" standalone="no"?>
<!-- Created with Inkscape (http://www.inkscape.org/) -->

<svg
   xmlns:dc="http://purl.org/dc/elements/1.1/"
   xmlns:cc="http://creativecommons.org/ns#"
   xmlns:rdf="http://www.w3.org/1999/02/22-rdf-syntax-ns#"
   xmlns:svg="http://www.w3.org/2000/svg"
   xmlns="http://www.w3.org/2000/svg"
   xmlns:sodipodi="http://sodipodi.sourceforge.net/DTD/sodipodi-0.dtd"
   xmlns:inkscape="http://www.inkscape.org/namespaces/inkscape"
   width="125"
   height="125"
   viewBox="0 0 33.072916 33.072918"
   version="1.1"
   id="svg853"
   inkscape:version="0.92.3 (2405546, 2018-03-11)"
   sodipodi:docname="poo.svg"
   inkscape:export-filename="/home/damien/Documents/crying-baby/src/assets/images/poo.png"
   inkscape:export-xdpi="96"
   inkscape:export-ydpi="96">
  <defs
     id="defs847" />
  <sodipodi:namedview
     id="base"
     pagecolor="#ffffff"
     bordercolor="#666666"
     borderopacity="1.0"
     inkscape:pageopacity="0.0"
     inkscape:pageshadow="2"
     inkscape:zoom="2.8"
     inkscape:cx="51.75791"
     inkscape:cy="70.139224"
     inkscape:document-units="mm"
     inkscape:current-layer="layer1"
     showgrid="false"
     units="px"
     inkscape:window-width="1600"
     inkscape:window-height="845"
     inkscape:window-x="0"
     inkscape:window-y="0"
     inkscape:window-maximized="1" />
  <metadata
     id="metadata850">
    <rdf:RDF>
      <cc:Work
         rdf:about="">
        <dc:format>image/svg+xml</dc:format>
        <dc:type
           rdf:resource="http://purl.org/dc/dcmitype/StillImage" />
        <dc:title></dc:title>
      </cc:Work>
    </rdf:RDF>
  </metadata>
  <g
     inkscape:label="Calque 1"
     inkscape:groupmode="layer"
     id="layer1"
     transform="translate(0,-263.92707)">
    <path
       style="fill:#603813;fill-opacity:1;stroke-width:0.07309844"
       d="m 6.8514769,291.65343 c -2.8858795,-0.58709 -4.3761973,-3.74557 -3.0629534,-6.49141 0.204987,-0.4286 0.4006185,-0.69176 0.8251882,-1.11002 0.6341459,-0.62473 1.2232367,-0.95748 2.039726,-1.15217 0.4091283,-0.0976 0.5243714,-0.15253 0.4960336,-0.23669 -0.020306,-0.0602 -0.123881,-0.35638 -0.2301751,-0.65791 -0.2533473,-0.71867 -0.3129029,-1.7108 -0.1491879,-2.48533 0.310058,-1.46689 1.3542544,-2.67968 2.7512065,-3.19544 l 0.5099442,-0.18827 0.0013,-0.51939 c 0.0037,-1.50822 0.645658,-2.80537 1.823177,-3.68385 0.806763,-0.60188 4.958102,-2.65275 5.469042,-2.70184 0.436638,-0.0421 0.919545,0.102 1.290308,0.38488 0.314524,0.23991 0.626609,0.84844 0.626609,1.22184 0,0.16373 0.03801,0.28954 0.09138,0.30248 0.527476,0.1279 1.396128,0.47046 1.723071,0.6796 1.22018,0.78054 1.981593,2.23666 1.985405,3.79689 l 0.0013,0.51939 0.50994,0.18827 c 1.399532,0.51671 2.437127,1.72622 2.753229,3.20942 0.161755,0.75898 0.100711,1.75673 -0.15121,2.47135 -0.106294,0.30153 -0.20987,0.5976 -0.230173,0.65791 -0.02835,0.0842 0.0869,0.13915 0.496032,0.23669 0.816491,0.19469 1.405582,0.52744 2.039727,1.15217 0.42457,0.41826 0.6202,0.68142 0.825189,1.11002 0.6487,1.35636 0.639709,2.84588 -0.02531,4.19524 -0.489192,0.99257 -1.277164,1.68481 -2.416301,2.12275 l -0.548241,0.21078 -9.575895,0.0111 c -5.266747,0.007 -9.7074769,-0.0157 -9.8682932,-0.0484 z m 7.5475661,-7.37744 c 0.553498,-0.29615 0.988255,-0.75129 1.249072,-1.30766 0.167803,-0.35797 0.19447,-0.51008 0.19447,-1.10929 0,-0.60098 -0.02645,-0.75085 -0.196501,-1.11371 -0.250687,-0.53489 -0.781152,-1.06537 -1.3395,-1.33949 -0.392465,-0.1927 -0.509359,-0.21468 -1.132091,-0.21284 -0.614933,0.001 -0.744464,0.0264 -1.131433,0.21423 -0.556204,0.27004 -1.088839,0.80186 -1.34016,1.3381 -0.170057,0.36286 -0.1965,0.51273 -0.1965,1.11371 0,0.5953 0.02714,0.75231 0.190136,1.09982 0.328594,0.70058 0.775429,1.12305 1.519816,1.43699 0.349946,0.1476 0.506135,0.16935 1.06779,0.14877 0.581178,-0.0213 0.711172,-0.0525 1.114901,-0.26863 z m -1.644404,-1.61098 c -0.388918,-0.1658 -0.569474,-0.81566 -0.346444,-1.24694 0.300195,-0.58053 1.237352,-0.57094 1.540737,0.0158 0.166954,0.32285 0.10162,0.82508 -0.138583,1.06528 -0.204171,0.20416 -0.760753,0.29163 -1.05571,0.1659 z m 7.815599,1.66376 c 1.851417,-0.8505 2.139118,-3.42657 0.51663,-4.62591 -1.367903,-1.01114 -3.307936,-0.5443 -4.056438,0.97611 -0.220132,0.44717 -0.23756,0.53632 -0.237508,1.21508 5.3e-5,0.66263 0.01995,0.7709 0.208478,1.13458 0.269411,0.51968 0.720787,0.98744 1.180336,1.22314 0.550443,0.28234 0.677632,0.3094 1.352324,0.28762 0.485524,-0.0156 0.712011,-0.0618 1.036178,-0.21062 z m -1.737925,-1.84108 c -0.202791,-0.20279 -0.248535,-0.30436 -0.248535,-0.55187 0,-0.75154 0.615322,-1.15444 1.280802,-0.83867 0.138479,0.0656 0.292554,0.2198 0.358266,0.35827 0.315789,0.66548 -0.08712,1.2808 -0.838664,1.2808 -0.247502,0 -0.349079,-0.0458 -0.551869,-0.24853 z"
       id="path826"
       inkscape:connector-curvature="0" />
  </g>
</svg>
